<mxfile host="app.diagrams.net" agent="Mozilla/5.0 (Windows NT 10.0; Win64; x64) AppleWebKit/537.36 (KHTML, like Gecko) Chrome/129.0.0.0 Safari/537.36" version="24.8.4">
  <diagram name="Page-1" id="197159a0-c6a4-9194-75a8-e4174976684c">
    <mxGraphModel dx="1434" dy="738" grid="1" gridSize="10" guides="1" tooltips="1" connect="1" arrows="1" fold="1" page="1" pageScale="1.5" pageWidth="1169" pageHeight="826" background="none" math="0" shadow="0">
      <root>
        <mxCell id="0" style=";html=1;" />
        <mxCell id="1" style=";html=1;" parent="0" />
        <mxCell id="j6XAS2CCTATsVqlP8x6V-16" value="" style="edgeStyle=orthogonalEdgeStyle;rounded=0;orthogonalLoop=1;jettySize=auto;html=1;" edge="1" parent="1" source="j6XAS2CCTATsVqlP8x6V-2" target="j6XAS2CCTATsVqlP8x6V-14">
          <mxGeometry relative="1" as="geometry" />
        </mxCell>
        <mxCell id="j6XAS2CCTATsVqlP8x6V-2" value="nginx" style="rounded=1;whiteSpace=wrap;html=1;" vertex="1" parent="1">
          <mxGeometry x="541.6" y="200" width="100" height="40" as="geometry" />
        </mxCell>
        <mxCell id="j6XAS2CCTATsVqlP8x6V-15" value="" style="edgeStyle=orthogonalEdgeStyle;rounded=0;orthogonalLoop=1;jettySize=auto;html=1;" edge="1" parent="1" source="j6XAS2CCTATsVqlP8x6V-5" target="j6XAS2CCTATsVqlP8x6V-2">
          <mxGeometry relative="1" as="geometry" />
        </mxCell>
        <mxCell id="j6XAS2CCTATsVqlP8x6V-5" value="用户" style="pointerEvents=1;shadow=0;dashed=0;html=1;strokeColor=none;fillColor=#4495D1;labelPosition=center;verticalLabelPosition=bottom;verticalAlign=top;align=center;outlineConnect=0;shape=mxgraph.veeam.monitor;" vertex="1" parent="1">
          <mxGeometry x="570" y="100" width="43.2" height="47.6" as="geometry" />
        </mxCell>
        <mxCell id="j6XAS2CCTATsVqlP8x6V-6" value="MySQL" style="outlineConnect=0;dashed=0;verticalLabelPosition=bottom;verticalAlign=top;align=center;html=1;shape=mxgraph.aws3.mysql_db_instance;fillColor=#2E73B8;gradientColor=none;" vertex="1" parent="1">
          <mxGeometry x="400" y="460" width="60" height="64.5" as="geometry" />
        </mxCell>
        <mxCell id="j6XAS2CCTATsVqlP8x6V-7" value="Redis" style="outlineConnect=0;dashed=0;verticalLabelPosition=bottom;verticalAlign=top;align=center;html=1;shape=mxgraph.aws3.redis;fillColor=#2E73B8;gradientColor=none;" vertex="1" parent="1">
          <mxGeometry x="520" y="460" width="60" height="63" as="geometry" />
        </mxCell>
        <mxCell id="j6XAS2CCTATsVqlP8x6V-10" value="Datahub" style="image;aspect=fixed;perimeter=ellipsePerimeter;html=1;align=center;shadow=0;dashed=0;spacingTop=3;image=img/lib/active_directory/database_cube.svg;" vertex="1" parent="1">
          <mxGeometry x="630" y="460.5" width="57.15" height="63.5" as="geometry" />
        </mxCell>
        <mxCell id="j6XAS2CCTATsVqlP8x6V-17" style="edgeStyle=orthogonalEdgeStyle;rounded=0;orthogonalLoop=1;jettySize=auto;html=1;" edge="1" parent="1" source="j6XAS2CCTATsVqlP8x6V-14" target="j6XAS2CCTATsVqlP8x6V-6">
          <mxGeometry relative="1" as="geometry" />
        </mxCell>
        <mxCell id="j6XAS2CCTATsVqlP8x6V-19" style="edgeStyle=orthogonalEdgeStyle;rounded=0;orthogonalLoop=1;jettySize=auto;html=1;exitX=0.5;exitY=1;exitDx=0;exitDy=0;" edge="1" parent="1" source="j6XAS2CCTATsVqlP8x6V-14" target="j6XAS2CCTATsVqlP8x6V-10">
          <mxGeometry relative="1" as="geometry" />
        </mxCell>
        <mxCell id="j6XAS2CCTATsVqlP8x6V-20" style="edgeStyle=orthogonalEdgeStyle;rounded=0;orthogonalLoop=1;jettySize=auto;html=1;exitX=1;exitY=0.5;exitDx=0;exitDy=0;" edge="1" parent="1" source="j6XAS2CCTATsVqlP8x6V-14" target="j6XAS2CCTATsVqlP8x6V-11">
          <mxGeometry relative="1" as="geometry" />
        </mxCell>
        <mxCell id="j6XAS2CCTATsVqlP8x6V-14" value="data-service-api&lt;div&gt;botech-gateway&lt;/div&gt;&lt;div&gt;botech-auth&lt;/div&gt;&lt;div&gt;botech-system&lt;/div&gt;&lt;div&gt;shibei-data-lake&lt;/div&gt;" style="rounded=0;whiteSpace=wrap;html=1;" vertex="1" parent="1">
          <mxGeometry x="466.6" y="290" width="250" height="80" as="geometry" />
        </mxCell>
        <mxCell id="j6XAS2CCTATsVqlP8x6V-11" value="Datart" style="shadow=0;dashed=0;html=1;strokeColor=none;fillColor=#4495D1;labelPosition=center;verticalLabelPosition=bottom;verticalAlign=top;align=center;outlineConnect=0;shape=mxgraph.veeam.2d.web_ui;" vertex="1" parent="1">
          <mxGeometry x="720" y="469.1" width="50" height="53.9" as="geometry" />
        </mxCell>
        <mxCell id="j6XAS2CCTATsVqlP8x6V-8" value="" style="dashed=0;outlineConnect=0;html=1;align=center;labelPosition=center;verticalLabelPosition=bottom;verticalAlign=top;shape=mxgraph.weblogos.java" vertex="1" parent="1">
          <mxGeometry x="486.6" y="297.5" width="34.4" height="65" as="geometry" />
        </mxCell>
        <mxCell id="j6XAS2CCTATsVqlP8x6V-18" style="edgeStyle=orthogonalEdgeStyle;rounded=0;orthogonalLoop=1;jettySize=auto;html=1;exitX=0.5;exitY=1;exitDx=0;exitDy=0;entryX=0.5;entryY=0;entryDx=0;entryDy=0;entryPerimeter=0;" edge="1" parent="1" source="j6XAS2CCTATsVqlP8x6V-14" target="j6XAS2CCTATsVqlP8x6V-7">
          <mxGeometry relative="1" as="geometry" />
        </mxCell>
      </root>
    </mxGraphModel>
  </diagram>
</mxfile>
